<?xml version="1.0" encoding="UTF-8"?> <svg xmlns="http://www.w3.org/2000/svg" version="1.1" id="Capa_1" x="0" y="0" viewBox="0 0 338.5 82.5" xml:space="preserve" width="270"><style>.st0{fill:#fff}</style><path class="st0" d="M206.6 38.7h.7v-5.1h2.1v-.7h-4.8v.7h2zM212.8 38.8c.7 0 1.3-.2 1.7-.6s.6-.9.6-1.7v-3.7h-.7v3.5c0 .6-.1 1.1-.4 1.3-.3.3-.7.4-1.2.4s-.9-.1-1.2-.4c-.3-.3-.4-.7-.4-1.3v-3.5h-.7v3.7c0 .7.2 1.3.6 1.7.4.4 1 .6 1.7.6zM217.7 36.3h1.4l1.6 2.4h.8l-1.6-2.5c.4-.1.7-.3.9-.6.2-.3.3-.6.3-1 0-.5-.2-.9-.5-1.2-.4-.3-.8-.5-1.4-.5H217v5.8h.7v-2.4zm0-2.7h1.5c.8 0 1.2.3 1.2 1s-.4 1-1.2 1h-1.5v-2zM222.8 32.9h.7v5.8h-.7zM229.4 38c.2-.3.3-.5.3-.9 0-.5-.2-.8-.5-1.1-.3-.3-.9-.5-1.6-.6-.4-.1-.7-.2-1-.2-.2-.1-.4-.2-.5-.3-.1-.1-.2-.3-.2-.5 0-.3.1-.5.4-.7.3-.2.6-.3 1.1-.3.4 0 .8.1 1 .2.2.2.5.4.6.8l.6-.5c-.5-.8-1.2-1.2-2.3-1.2-.4 0-.8.1-1.1.2-.3.2-.6.4-.8.6-.2.3-.3.6-.3.9 0 .5.2.8.5 1.1.3.3.9.4 1.7.6.6.1 1 .2 1.3.4.2.2.4.4.4.6 0 .3-.1.5-.4.7-.3.2-.6.3-1.1.3-.5 0-.9-.1-1.2-.3-.3-.2-.5-.5-.7-.8l-.6.5c.2.4.5.7.9.9.4.2.9.3 1.5.3.4 0 .8-.1 1.2-.2.3 0 .6-.2.8-.5zM234.4 36.4l-.5 1.5-.4-1.5-1.3-3.5h-1.1v5.8h.7v-3.6l-.1-1.6 1.9 5.2h.6l2-5.2-.1 1.6v3.6h.7v-5.8h-1.1zM242.4 33.2c-.4-.2-.9-.4-1.4-.4-.5 0-1 .1-1.4.4-.4.2-.7.6-.9 1-.2.5-.3 1-.3 1.6 0 .6.1 1.1.3 1.6.2.5.5.8.9 1 .4.2.9.4 1.4.4.5 0 1-.1 1.4-.4.4-.2.7-.6.9-1 .2-.5.3-1 .3-1.6 0-.6-.1-1.1-.3-1.6-.1-.4-.5-.8-.9-1zm0 4.3c-.4.4-.8.6-1.4.6s-1.1-.2-1.4-.6c-.4-.4-.5-1-.5-1.7s.2-1.3.5-1.7c.4-.4.8-.6 1.4-.6s1.1.2 1.4.6c.4.4.5 1 .5 1.7.1.7-.1 1.3-.5 1.7zM249.5 32.9l-2.3 5.8h.7l.6-1.6h2.6l.6 1.6h.8l-2.3-5.8h-.7zm-.7 3.5.8-2.1.3-.8.3.8.8 2.1h-2.2zM256.9 37.9c-.3.2-.6.3-1 .3-.6 0-1.1-.2-1.4-.6-.4-.4-.5-1-.5-1.7 0-.5.1-.9.2-1.3.2-.4.4-.6.7-.8.3-.2.7-.3 1.1-.3.4 0 .7.1.9.3.2.2.4.4.6.8l.7-.3c-.2-.4-.5-.8-.9-1-.4-.2-.8-.3-1.4-.3-.5 0-1 .1-1.4.4-.4.2-.7.6-.9 1-.2.5-.3 1-.3 1.6 0 .6.1 1.1.3 1.6.2.5.5.8.9 1 .4.2.9.4 1.4.4.5 0 1-.1 1.4-.4.4-.3.7-.7.9-1.2l-.7-.3c-.1.3-.3.6-.6.8zM261 38.7h.7v-5.1h2v-.7H259v.7h2zM265 32.9h.7v5.8h-.7zM269.9 38.7l2.2-5.8h-.8l-1.4 4-.4 1.2-.4-1.2-1.5-4h-.7l2.2 5.8zM274.1 38.4c.4.2.9.4 1.4.4.5 0 1-.1 1.4-.4.4-.2.7-.6.9-1 .2-.5.3-1 .3-1.6 0-.6-.1-1.1-.3-1.6-.2-.5-.5-.8-.9-1-.4-.2-.9-.4-1.4-.4-.5 0-1 .1-1.4.4-.4.2-.7.6-.9 1-.2.5-.3 1-.3 1.6 0 .6.1 1.1.3 1.6.2.5.5.8.9 1zm0-4.3c.4-.4.8-.6 1.4-.6s1.1.2 1.4.6c.4.4.5 1 .5 1.7s-.2 1.3-.5 1.7c-.4.4-.8.6-1.4.6s-1.1-.2-1.4-.6c-.4-.4-.5-1-.5-1.7s.1-1.3.5-1.7zM283.9 38.7h.7v-5.1h2v-.7h-4.7v.7h2zM288.6 32.9l-2.3 5.8h.7l.6-1.6h2.6l.6 1.6h.8l-2.3-5.8h-.7zm-.6 3.5.8-2.1.3-.8.3.8.8 2.1H288zM292.6 36.1h2.9v.7h-2.9zM298.8 38.2c-.4 0-.7-.1-.9-.3-.2-.2-.3-.4-.4-.8l-.7.4c.2.4.4.8.8 1 .3.2.8.3 1.3.3.6 0 1.1-.2 1.5-.5.4-.3.5-.8.5-1.4 0-.6-.2-1-.5-1.4-.3-.3-.8-.5-1.3-.5-.6 0-1 .2-1.3.5v-.1l.2-1.8h2.7v-.7h-3.3l-.4 3.3h.6c.3-.4.7-.6 1.3-.6.4 0 .7.1.9.3.2.2.3.5.3.9s-.1.7-.3.9c-.2.3-.6.5-1 .5zM306.3 36.9c0-.6-.2-1-.5-1.4-.4-.3-.8-.5-1.4-.5-.4 0-.7.1-1 .3s-.5.4-.6.8v-.2c0-.5.1-.9.2-1.3s.3-.7.6-.9c.2-.2.5-.3.8-.3.6 0 1.1.3 1.2.9l.7-.3c-.2-.4-.4-.7-.7-.9-.3-.2-.7-.3-1.1-.3-.4 0-.8.1-1.2.3-.3.2-.6.6-.8 1-.2.5-.3 1-.3 1.6 0 .6.1 1.1.3 1.6.2.5.4.8.8 1.1.3.3.7.4 1.2.4.6 0 1.1-.2 1.5-.5.1-.3.3-.8.3-1.4zm-1.1.9c-.2.2-.5.3-.9.3s-.7-.1-.9-.3c-.2-.2-.3-.5-.3-.9s.1-.6.4-.9c.2-.2.5-.3.9-.3s.7.1.9.3c.2.2.3.5.3.9s-.1.7-.4.9zM206.8 43.5l-2.3 5.8h.7l.6-1.6h2.6l.6 1.6h.8l-2.3-5.8h-.7zm-.6 3.5.8-2 .3-.8.3.8.8 2.1h-2.2zM213.1 47h1.9v.2c0 .5-.2.9-.5 1.1-.3.3-.7.4-1.2.4-.6 0-1.1-.2-1.5-.6-.3-.4-.5-1-.5-1.7 0-.5.1-.9.2-1.3.2-.4.4-.6.7-.8.3-.2.6-.3 1-.3s.8.1 1.1.3c.3.2.5.4.6.8l.6-.4c-.2-.5-.5-.8-.9-1-.4-.2-.8-.3-1.4-.3-.5 0-1 .1-1.4.4-.4.2-.7.6-1 1-.2.5-.3 1-.3 1.6 0 .6.1 1.1.3 1.6.2.5.5.8.9 1 .4.2.9.4 1.4.4.4 0 .8-.1 1.1-.2.3-.2.5-.4.7-.6v.8h.5v-2.9h-2.5v.5zM218 46.7h2.6V46H218v-1.8h3.4v-.7h-4.1v5.8h4.2v-.6H218zM226.8 47.6l.1 1-.7-1.2-2.4-3.9h-.9v5.8h.7v-5l.6 1.1 2.4 3.9h.9v-5.8h-.7zM232.8 48.5c-.3.2-.6.3-1 .3-.6 0-1.1-.2-1.4-.6-.4-.4-.5-1-.5-1.7 0-.5.1-.9.2-1.3.2-.4.4-.6.7-.8.3-.2.7-.3 1.1-.3.4 0 .7.1.9.3.2.2.4.4.6.8l.7-.3c-.2-.4-.5-.8-.9-1-.4-.2-.8-.3-1.4-.3-.5 0-1 .1-1.4.4-.4.2-.7.6-.9 1-.2.5-.3 1-.3 1.6 0 .6.1 1.1.3 1.6.2.5.5.8.9 1 .4.2.9.4 1.4.4.5 0 1-.1 1.4-.4s.7-.7.9-1.2l-.7-.3c-.1.3-.3.6-.6.8zM235.5 43.5h.7v5.8h-.7zM239.6 43.5l-2.3 5.8h.7l.6-1.6h2.6l.6 1.6h.8l-2.3-5.8h-.7zM239 47l.8-2.1.3-.8.3.8.8 2.1H239zM248.5 43.5h-1.9v5.8h1.9c.9 0 1.6-.3 2.2-.8.5-.5.8-1.2.8-2.2 0-.9-.3-1.6-.8-2.2-.6-.3-1.3-.6-2.2-.6zm1.6 4.6c-.4.4-.9.6-1.6.6h-1.2v-4.5h1.2c.7 0 1.2.2 1.6.6.4.4.6.9.6 1.7s-.2 1.2-.6 1.6zM253.7 46.7h2.6V46h-2.6v-1.8h3.3v-.7h-4v5.8h4.2v-.6h-3.5zM263.6 47.5l-.4 1.2-.4-1.2-1.4-4h-.8l2.2 5.8h.8l2.2-5.8h-.7zM267 43.5h.7v5.8h-.7zM271.2 43.5l-2.3 5.8h.7l.6-1.6h2.6l.6 1.6h.8l-2.3-5.8h-.7zm-.7 3.5.8-2.1.3-.8.3.8.8 2.1h-2.2zM277.9 47.2c0 .5-.1 1-.3 1.2-.2.3-.5.4-1 .4-.4 0-.6-.1-.8-.3-.2-.2-.3-.4-.3-.8v-.4l-.7.1v.5c0 .5.2.9.5 1.1.3.3.7.4 1.3.4.6 0 1.1-.2 1.5-.6.4-.4.5-.9.5-1.5v-3.8h-.7v3.7zM281.2 46.7h2.6V46h-2.6v-1.8h3.4v-.7h-4.1v5.8h4.2v-.6h-3.5zM288.2 46.1c-.4-.1-.7-.2-1-.2-.2-.1-.4-.2-.5-.3-.1-.1-.2-.3-.2-.5 0-.3.1-.5.4-.7.3-.2.6-.3 1.1-.3.4 0 .8.1 1 .2.2.2.5.4.6.8l.6-.5c-.5-.8-1.2-1.2-2.3-1.2-.4 0-.8.1-1.1.2-.3.2-.6.4-.8.6-.2.3-.3.6-.3.9 0 .5.2.8.5 1.1.3.3.9.4 1.7.6.6.1 1 .2 1.3.4.2.2.4.4.4.6 0 .3-.1.5-.4.7-.3.2-.6.3-1.1.3-.5 0-.9-.1-1.2-.3-.3-.2-.5-.5-.7-.8l-.6.5c.2.4.5.7.9.9.4.2.9.3 1.5.3.4 0 .8-.1 1.2-.2.3-.1.6-.3.8-.6.2-.3.3-.5.3-.9 0-.5-.2-.8-.5-1.1-.3-.2-.9-.4-1.6-.5zM296 43.5l-2.3 5.8h.7l.6-1.6h2.6l.6 1.6h.8l-2.3-5.8h-.7zm-.7 3.5.8-2.1.3-.8.3.8.8 2.1h-2.2zM302 47.5l-.4 1.2-.3-1.2-1.5-4h-.8l2.2 5.8h.9l2.2-5.8h-.8zM304.8 46.7h2.9v.7h-2.9zM309.8 48.7c.7-.5 1.2-.9 1.6-1.3.4-.4.7-.7.9-1.1.2-.3.3-.7.3-1.1 0-.4-.1-.7-.2-1-.2-.3-.4-.5-.7-.6-.3-.2-.6-.2-1-.2-.6 0-1 .2-1.4.5-.4.3-.6.7-.6 1.3l.6.4c0-.4.2-.8.4-1.1.2-.3.6-.4 1-.4s.7.1.9.3c.2.2.3.5.3.8 0 .3-.1.7-.3 1-.2.3-.5.7-.9 1.1-.4.4-1 .9-1.9 1.5v.6h3.9v-.7h-2.9zM313.5 44.2h3.5c-.7.7-1.2 1.5-1.5 2.4-.3.9-.5 1.8-.5 2.8h.7c0-1 .2-1.9.5-2.8.3-.8.9-1.6 1.6-2.4v-.7h-4.3v.7zM321.4 46.4c.2 0 .4-.1.5-.2.2-.1.3-.3.4-.5.1-.2.1-.5.1-.7 0-.3-.1-.5-.2-.8-.1-.2-.3-.4-.6-.6-.3-.1-.6-.2-1-.2s-.8.1-1.2.3c-.3.2-.6.5-.7.9l.7.3c.1-.3.2-.5.4-.7.2-.2.5-.2.8-.2.3 0 .6.1.8.3.2.2.3.4.3.7 0 .7-.4 1-1.2 1h-.2v.7h.2c.5 0 .8.1 1 .2s.3.4.3.8c0 .3-.1.6-.3.8-.2.2-.5.3-.9.3s-.7-.1-.9-.3c-.2-.2-.4-.4-.5-.8l-.7.3c.4.9 1 1.4 2 1.4.4 0 .8-.1 1.1-.2s.6-.3.7-.6c.2-.3.3-.5.3-.8 0-.4-.1-.7-.3-1-.2-.3-.5-.4-.9-.4zM324.1 46.7h2.9v.7h-2.9zM330.1 43.5l-2.3 5.8h.7l.6-1.6h2.6l.6 1.6h.8l-2.3-5.8h-.7zm-.7 3.5.8-2.1.3-.8.3.8.8 2.1h-2.2zM338 46.7c-.3-.3-.9-.5-1.6-.6-.4-.1-.7-.2-1-.2-.2-.1-.4-.2-.5-.3-.1-.1-.2-.3-.2-.5 0-.3.1-.5.4-.7.3-.2.6-.3 1.1-.3.4 0 .8.1 1 .2.2.2.5.4.6.8l.6-.5c-.5-.8-1.2-1.2-2.3-1.2-.4 0-.8.1-1.1.2-.3.2-.6.4-.8.6-.2.3-.3.6-.3.9 0 .5.2.8.5 1.1.3.3.9.4 1.7.6.6.1 1 .2 1.3.4.2.2.4.4.4.6 0 .3-.1.5-.4.7-.3.2-.6.3-1.1.3-.5 0-.9-.1-1.2-.3-.3-.2-.5-.5-.7-.8l-.6.5c.2.4.5.7.9.9.4.2.9.3 1.5.3.4 0 .8-.1 1.2-.2.3-.1.6-.3.8-.6.2-.3.3-.5.3-.9s-.2-.8-.5-1zM60.8 28.3h5.6l6.3 9.6H76l-6.5-10c1.6-.4 2.9-1.2 3.8-2.3.9-1.1 1.4-2.5 1.4-4.2 0-2.1-.7-3.7-2.1-5-1.4-1.2-3.3-1.8-5.7-1.8H58V38h2.8v-9.7zm0-10.9h5.9c3.3 0 4.9 1.4 4.9 4.2 0 2.8-1.6 4.2-4.9 4.2h-5.9v-8.4zM90.3 38.3c3 0 5.2-.8 6.8-2.3 1.6-1.5 2.3-3.8 2.3-6.7V14.7h-2.8v13.9c0 2.4-.5 4.2-1.5 5.4-1 1.1-2.6 1.7-4.8 1.7-2.2 0-3.7-.6-4.8-1.7-1-1.1-1.5-2.9-1.5-5.4V14.7h-2.8v14.6c0 3 .8 5.2 2.3 6.7 1.6 1.6 3.8 2.3 6.8 2.3zM109.4 23.4l-.3-6.2 7.7 20.8h2.4l7.6-20.8-.3 6.2V38h2.7V14.7h-4.3l-5.1 14.2-1.8 5.8h-.1l-1.7-5.9-5.1-14.1h-4.4V38h2.7zM151.3 36.2c1.5-1.2 2.3-2.8 2.3-4.8 0-1.3-.4-2.4-1.2-3.4-.8-1-1.9-1.6-3.3-1.9 1.2-.2 2.2-.8 2.9-1.8.7-.9 1-2 1-3.2 0-2-.7-3.6-2-4.7s-3.3-1.7-6-1.7h-8.3V38h8.2c2.8 0 4.9-.6 6.4-1.8zm-11.7-18.8h5.5c3.3 0 4.9 1.3 4.9 3.8 0 1.3-.4 2.2-1.2 2.9-.8.6-2 .9-3.7.9h-5.5v-7.6zm0 10.2h6.1c1.6 0 2.9.3 3.7 1 .8.7 1.2 1.6 1.2 2.9 0 1.2-.4 2.2-1.2 2.9-.8.7-2.1 1-3.7 1h-6.1v-7.8zM163.4 36.9c1.6 1 3.5 1.5 5.7 1.5s4.1-.5 5.7-1.5c1.6-1 2.9-2.4 3.7-4.2.9-1.8 1.3-3.9 1.3-6.4 0-2.4-.4-4.6-1.3-6.4-.9-1.8-2.1-3.2-3.7-4.2s-3.5-1.5-5.7-1.5-4.1.5-5.7 1.5c-1.6 1-2.9 2.4-3.7 4.2-.9 1.8-1.3 3.9-1.3 6.4 0 2.4.4 4.6 1.3 6.4.9 1.8 2.1 3.2 3.7 4.2zm0-17.4c1.4-1.7 3.3-2.5 5.7-2.5 2.4 0 4.3.8 5.7 2.5 1.4 1.7 2.1 3.9 2.1 6.8s-.7 5.2-2.1 6.8c-1.4 1.7-3.3 2.5-5.7 2.5-2.4 0-4.3-.8-5.7-2.5-1.4-1.7-2.1-3.9-2.1-6.8s.7-5.1 2.1-6.8zM61.3 63h7.3l1.4 4.8h5.7l-7.4-21.2h-6.6l-7.4 21.2h5.6l1.4-4.8zm2.8-8.9.9-3.3.9 3.3 1.5 5.1h-5l1.7-5.1zM86.7 46.6v21.2h5.5v-7.3h4.2c2.6 0 4.7-.6 6.1-1.8 1.4-1.2 2.1-2.9 2.1-5 0-2.3-.7-4-2.1-5.2-1.4-1.2-3.4-1.8-6.1-1.8h-9.7zm12.4 6.9c0 1-.3 1.7-.9 2.1-.6.5-1.4.7-2.6.7h-3.3v-5.6h3.3c1.2 0 2.1.2 2.6.7.6.5.9 1.2.9 2.1zM108.2 46.6h5.5v21.2h-5.5zM122.3 47.6c-1.6.9-2.8 2.1-3.6 3.8-.8 1.6-1.3 3.6-1.3 5.8 0 2.3.4 4.2 1.3 5.9.8 1.6 2 2.9 3.6 3.8 1.6.9 3.4 1.3 5.6 1.3 2.3 0 4.3-.5 5.9-1.6 1.6-1.1 2.7-2.7 3.3-4.8l-5-1.4c-.3 1.2-.7 2.1-1.4 2.6-.7.6-1.6.8-2.8.8-1.6 0-2.8-.6-3.6-1.7-.8-1.1-1.2-2.8-1.2-4.9 0-2.1.4-3.8 1.3-4.9.9-1.1 2.1-1.7 3.6-1.7 1.1 0 2 .3 2.6.8.6.5 1.1 1.4 1.4 2.7l4.8-2c-.5-1.9-1.6-3.4-3.2-4.4-1.6-1-3.6-1.5-5.9-1.5-2 .1-3.8.5-5.4 1.4zM144.2 47.6c-1.6.9-2.8 2.1-3.6 3.8-.8 1.6-1.3 3.6-1.3 5.9 0 2.3.4 4.2 1.3 5.9.8 1.6 2 2.9 3.6 3.8 1.6.9 3.4 1.3 5.6 1.3 2.1 0 4-.4 5.5-1.3 1.6-.9 2.7-2.1 3.6-3.8.8-1.6 1.3-3.6 1.3-5.9 0-2.3-.4-4.2-1.3-5.9-.8-1.6-2-2.9-3.6-3.8-1.6-.9-3.4-1.3-5.5-1.3-2.2 0-4.1.4-5.6 1.3zm9 4.7c.8 1.1 1.2 2.7 1.2 4.9s-.4 3.8-1.2 4.9c-.8 1.1-2 1.7-3.5 1.7s-2.7-.6-3.5-1.7c-.8-1.1-1.2-2.7-1.2-4.9s.4-3.8 1.2-4.9c.8-1.1 2-1.7 3.5-1.7 1.6 0 2.7.5 3.5 1.7zM171.9 46.3c-1.9 0-3.5.3-4.9.9-1.4.6-2.4 1.4-3.1 2.5-.7 1-1.1 2.2-1.1 3.6 0 1.3.3 2.4 1 3.3.7.9 1.6 1.5 2.8 2 1.2.5 2.7.9 4.5 1.3 1.5.3 2.5.6 3.2.9.6.3.9.7.9 1.2 0 .6-.3 1.1-.9 1.4-.6.3-1.5.5-2.6.5-1.5 0-2.7-.2-3.8-.7-1-.5-2-1.3-2.8-2.4l-2.8 3.9c1.1 1.2 2.4 2.1 3.9 2.7 1.5.6 3.4.9 5.8.9 1.7 0 3.2-.3 4.6-.8 1.4-.5 2.4-1.3 3.2-2.2.8-1 1.2-2.1 1.2-3.5 0-1.9-.6-3.3-1.9-4.3-1.3-1-3.3-1.8-6.3-2.3-1.5-.3-2.6-.6-3.2-.9-.6-.3-.9-.8-.9-1.3 0-.6.3-1.2.9-1.5.6-.4 1.5-.6 2.6-.6 1.3 0 2.5.3 3.4.8 1 .5 1.8 1.3 2.5 2.4l3.1-3.6c-1.2-1.3-2.5-2.3-4-2.9-1.5-1-3.2-1.3-5.3-1.3z"></path><path class="st0" d="M0 82.5h193.3V0H0v82.5zM13.1 35l20.7 7.2H4.6l8.6-7-.1-.2zM9.6 55.2h.1L3 74.4h-.6v-28l7.2 8.8zM2.3 2.3H191v77.9H2.7l1.2-3.5c5.4-.4 10.7-2.1 15.4-4.8l-1.2-2c-4.1 2.4-8.7 3.9-13.4 4.4l6.8-19.8 31.4-10.8-30.4-10.5L3.7 7.7c6.8.5 13.4 3.1 18.7 7.5l1.5-1.8C18 8.5 10.6 5.7 2.9 5.3l-.6-1.6V2.3z"></path><path class="st0" d="m13.3 32.1 6.4 1.8 14.2-22.8L11 25.3l2.3 6.8zm5.7 0-4.5-1.3-1.6-4.8 16.3-10.1L19 32.1zM12.6 56.1l-2.3 6.8 22.8 14.2-14.2-22.8zM28.9 22.4c3.2 4.7 5.1 10.1 5.6 15.7l2.3-.2c-.5-6-2.6-11.8-6-16.8l-1.9 1.3zM26.6 62.7l1.7 1.5c3.7-4.4 6.4-9.6 7.6-15.2l-2.2-.5c-1.1 5.2-3.6 10.1-7.1 14.2z"></path></svg> 